<?xml version="1.0" encoding="UTF-8" standalone="no"?>
<svg
   xmlns:dc="http://purl.org/dc/elements/1.1/"
   xmlns:cc="http://creativecommons.org/ns#"
   xmlns:rdf="http://www.w3.org/1999/02/22-rdf-syntax-ns#"
   xmlns:svg="http://www.w3.org/2000/svg"
   xmlns="http://www.w3.org/2000/svg"
   xmlns:sodipodi="http://sodipodi.sourceforge.net/DTD/sodipodi-0.dtd"
   xmlns:inkscape="http://www.inkscape.org/namespaces/inkscape"
   id="svg4"
   version="1.1"
   viewBox="0 0 16 16"
   class="bi bi-clipboard-fill"
   fill="currentColor"
   height="16"
   width="16"
   sodipodi:docname="clipboard-fill.svg"
   inkscape:version="0.92.5 (2060ec1f9f, 2020-04-08)">
  <metadata
     id="metadata7">
    <rdf:RDF>
      <cc:Work
         rdf:about="">
        <dc:format>image/svg+xml</dc:format>
        <dc:type
           rdf:resource="http://purl.org/dc/dcmitype/StillImage" />
        <dc:title></dc:title>
      </cc:Work>
    </rdf:RDF>
  </metadata>
  <sodipodi:namedview
     pagecolor="#ffffff"
     bordercolor="#666666"
     borderopacity="1"
     objecttolerance="10"
     gridtolerance="10"
     guidetolerance="10"
     inkscape:pageopacity="0"
     inkscape:pageshadow="2"
     inkscape:window-width="2488"
     inkscape:window-height="1376"
     id="namedview5"
     showgrid="true"
     inkscape:snap-bbox="true"
     inkscape:bbox-nodes="true"
     inkscape:zoom="41.7193"
     inkscape:cx="13.162914"
     inkscape:cy="11.095352"
     inkscape:window-x="72"
     inkscape:window-y="27"
     inkscape:window-maximized="1"
     inkscape:current-layer="svg4">
    <inkscape:grid
       type="xygrid"
       id="grid814" />
  </sodipodi:namedview>
  <defs
     id="defs8" />
  <rect
     style="display:none;opacity:1;fill:#ff00ff;fill-opacity:1;stroke:none;stroke-width:0.69999999;stroke-linecap:round;stroke-linejoin:round;stroke-miterlimit:4;stroke-dasharray:none;paint-order:normal"
     id="rect823"
     width="12"
     height="12"
     x="2"
     y="2"
     ry="0"
     sodipodi:insensitive="true" />
  <path
     style="fill:#ffffff;fill-rule:evenodd;stroke-width:0.99999988"
     id="path2"
     d="M 9.7142858,1.9999999 A 0.42857142,0.41379309 0 0 0 9.2857143,1.5862068 H 6.7142857 A 0.42857142,0.41379309 0 0 0 6.2857143,1.9999999 V 2.8275861 A 0.42857142,0.41379309 0 0 0 6.7142857,3.2413792 H 9.2857143 A 0.42857142,0.41379309 0 0 0 9.7142858,2.8275861 Z m -4.2857144,0 A 1.2857142,1.2413793 0 0 1 6.7142857,0.75862065 H 9.2857143 A 1.2857142,1.2413793 0 0 1 10.571428,1.9999999 V 2.8275861 A 1.2857142,1.2413793 0 0 1 9.2857143,4.0689653 H 6.7142857 A 1.2857142,1.2413793 0 0 1 5.4285714,2.8275861 Z m -1.7142857,0 H 4.5714286 V 2.8275861 A 2.1428572,2.0689654 0 0 0 6.7142857,4.8965515 H 9.2857143 A 2.1428572,2.0689654 0 0 0 11.428572,2.8275861 V 1.9999999 h 0.857142 A 1.7142857,1.6551723 0 0 1 14,3.6551723 v 8.6896547 a 1.7142857,1.6551723 0 0 1 -1.714286,1.655172 H 3.7142857 A 1.7142857,1.6551723 0 0 1 2,12.344827 V 3.6551723 A 1.7142857,1.6551723 0 0 1 3.7142857,1.9999999 Z"
     inkscape:connector-curvature="0" />
</svg>
