<?xml version="1.0" encoding="UTF-8" standalone="no"?>
<svg
   xmlns="http://www.w3.org/2000/svg"
   id="svg4"
   version="1.1"
   viewBox="0 0 16 16"
   class="bi bi-file-person-fill"
   fill="currentColor"
   height="16"
   width="16">
  <defs
     id="defs8" />
  <path
     style="fill:#ffffff"
     id="path2"
     d="M12 0H4a2 2 0 0 0-2 2v12a2 2 0 0 0 2 2h8a2 2 0 0 0 2-2V2a2 2 0 0 0-2-2zm-1 7a3 3 0 1 1-6 0 3 3 0 0 1 6 0zm-3 4c2.623 0 4.146.826 5 1.755V14a1 1 0 0 1-1 1H4a1 1 0 0 1-1-1v-1.245C3.854 11.825 5.377 11 8 11z" />
</svg>
