<?xml version="1.0" encoding="UTF-8" standalone="no"?>
<svg
   xmlns:dc="http://purl.org/dc/elements/1.1/"
   xmlns:cc="http://creativecommons.org/ns#"
   xmlns:rdf="http://www.w3.org/1999/02/22-rdf-syntax-ns#"
   xmlns:svg="http://www.w3.org/2000/svg"
   xmlns="http://www.w3.org/2000/svg"
   xmlns:sodipodi="http://sodipodi.sourceforge.net/DTD/sodipodi-0.dtd"
   xmlns:inkscape="http://www.inkscape.org/namespaces/inkscape"
   width="16"
   height="16"
   fill="currentColor"
   class="bi bi-film"
   viewBox="0 0 16 16"
   version="1.1"
   id="svg4"
   sodipodi:docname="film.svg"
   inkscape:version="0.92.5 (2060ec1f9f, 2020-04-08)">
  <metadata
     id="metadata10">
    <rdf:RDF>
      <cc:Work
         rdf:about="">
        <dc:format>image/svg+xml</dc:format>
        <dc:type
           rdf:resource="http://purl.org/dc/dcmitype/StillImage" />
        <dc:title></dc:title>
      </cc:Work>
    </rdf:RDF>
  </metadata>
  <defs
     id="defs8" />
  <sodipodi:namedview
     pagecolor="#ffffff"
     bordercolor="#666666"
     borderopacity="1"
     objecttolerance="10"
     gridtolerance="10"
     guidetolerance="10"
     inkscape:pageopacity="0"
     inkscape:pageshadow="2"
     inkscape:window-width="2488"
     inkscape:window-height="1376"
     id="namedview6"
     showgrid="true"
     inkscape:zoom="41.7193"
     inkscape:cx="14.845581"
     inkscape:cy="9.8962177"
     inkscape:window-x="72"
     inkscape:window-y="27"
     inkscape:window-maximized="1"
     inkscape:current-layer="svg4">
    <inkscape:grid
       type="xygrid"
       id="grid823" />
  </sodipodi:namedview>
  <rect
     style="display:none;opacity:1;fill:#ff00ff;fill-opacity:1;stroke:none;stroke-width:0.69999999;stroke-linecap:round;stroke-linejoin:round;stroke-miterlimit:4;stroke-dasharray:none;paint-order:normal"
     id="rect823"
     width="12"
     height="12"
     x="2"
     y="2"
     ry="0"
     sodipodi:insensitive="true" />
  <path
     d="M 2,2.75 A 0.75,0.75 0 0 1 2.75,2 h 10.5 A 0.75,0.75 0 0 1 14,2.75 v 10.5 A 0.75,0.75 0 0 1 13.25,14 H 2.75 A 0.75,0.75 0 0 1 2,13.25 Z m 3,0 v 4.5 h 6 v -4.5 z m 6,6 H 5 v 4.5 h 6 z m -8.25,-6 v 1.5 h 1.5 V 2.75 Z M 4.25,5 h -1.5 v 1.5 h 1.5 z m -1.5,2.25 v 1.5 h 1.5 V 7.25 Z M 4.25,9.5 H 2.75 V 11 h 1.5 z m -1.5,2.25 v 1.5 h 1.5 v -1.5 z m 10.5,-9 h -1.5 v 1.5 h 1.5 z M 11.75,5 v 1.5 h 1.5 V 5 Z m 1.5,2.25 h -1.5 v 1.5 h 1.5 z M 11.75,9.5 V 11 h 1.5 V 9.5 Z m 1.5,2.25 h -1.5 v 1.5 h 1.5 z"
     id="path2"
     inkscape:connector-curvature="0"
     style="stroke-width:1;fill:#ffffff" />
</svg>
