<?xml version="1.0" encoding="UTF-8" standalone="no"?>
<svg
   xmlns="http://www.w3.org/2000/svg"
   id="svg4"
   version="1.1"
   viewBox="0 0 16 16"
   class="bi bi-justify"
   fill="currentColor"
   height="16"
   width="16">
  <defs
     id="defs8" />
  <path
     style="fill:#ffffff;fill-rule:evenodd;stroke-width:1"
     id="path2"
     d="m 1.2677966,13.049153 a 0.56101695,0.56101695 0 0 1 0.561017,-0.561017 H 14.171186 a 0.561017,0.561017 0 0 1 0,1.122034 H 1.8288136 a 0.56101695,0.56101695 0 0 1 -0.561017,-0.561017 z m 0,-3.3661021 a 0.56101695,0.56101695 0 0 1 0.561017,-0.561017 H 14.171186 a 0.56101705,0.56101705 0 0 1 0,1.1220341 H 1.8288136 A 0.56101695,0.56101695 0 0 1 1.2677966,9.6830509 Z m 0,-3.3661017 a 0.56101695,0.56101695 0 0 1 0.561017,-0.561017 H 14.171186 a 0.56101695,0.56101695 0 0 1 0,1.1220339 H 1.8288136 A 0.56101695,0.56101695 0 0 1 1.2677966,6.3169492 Z m 0,-3.3661017 a 0.56101695,0.56101695 0 0 1 0.561017,-0.561017 H 14.171186 a 0.56101695,0.56101695 0 0 1 0,1.1220339 H 1.8288136 A 0.56101695,0.56101695 0 0 1 1.2677966,2.9508475 Z" />
</svg>
