<?xml version="1.0" encoding="UTF-8" standalone="no"?>
<!-- Created with Inkscape (http://www.inkscape.org/) -->

<svg
   xmlns:dc="http://purl.org/dc/elements/1.1/"
   xmlns:cc="http://creativecommons.org/ns#"
   xmlns:rdf="http://www.w3.org/1999/02/22-rdf-syntax-ns#"
   xmlns:svg="http://www.w3.org/2000/svg"
   xmlns="http://www.w3.org/2000/svg"
   xmlns:sodipodi="http://sodipodi.sourceforge.net/DTD/sodipodi-0.dtd"
   xmlns:inkscape="http://www.inkscape.org/namespaces/inkscape"
   width="52.31625mm"
   height="45.222767mm"
   viewBox="0 0 52.316249 45.222766"
   version="1.1"
   id="svg8"
   inkscape:version="0.92.5 (2060ec1f9f, 2020-04-08)"
   sodipodi:docname="logo.svg">
  <defs
     id="defs2" />
  <sodipodi:namedview
     id="base"
     pagecolor="#ffffff"
     bordercolor="#666666"
     borderopacity="1.0"
     inkscape:pageopacity="0.0"
     inkscape:pageshadow="2"
     inkscape:zoom="1.979899"
     inkscape:cx="329.11795"
     inkscape:cy="53.945471"
     inkscape:document-units="mm"
     inkscape:current-layer="g977"
     showgrid="true"
     inkscape:window-width="2488"
     inkscape:window-height="1376"
     inkscape:window-x="72"
     inkscape:window-y="27"
     inkscape:window-maximized="1"
     fit-margin-top="5"
     fit-margin-left="5"
     fit-margin-right="5"
     fit-margin-bottom="5">
    <inkscape:grid
       type="xygrid"
       id="grid815"
       units="mm"
       originx="-53.225418"
       originy="-229.55574" />
  </sodipodi:namedview>
  <metadata
     id="metadata5">
    <rdf:RDF>
      <cc:Work
         rdf:about="">
        <dc:format>image/svg+xml</dc:format>
        <dc:type
           rdf:resource="http://purl.org/dc/dcmitype/StillImage" />
        <dc:title></dc:title>
      </cc:Work>
    </rdf:RDF>
  </metadata>
  <g
     inkscape:label="Calque 1"
     inkscape:groupmode="layer"
     id="layer1"
     transform="translate(-53.225422,-22.221458)">
    <g
       id="g977">
      <path
         style="opacity:1;fill:#000000;fill-opacity:1;stroke:none;stroke-width:0.99999994;stroke-miterlimit:4;stroke-dasharray:none"
         d="m 83.979521,27.221458 a 9.3883767,9.3883767 0 0 0 -9.388322,9.388323 9.3883767,9.3883767 0 0 0 9.388322,9.388321 9.3883767,9.3883767 0 0 0 9.388324,-9.388321 9.3883767,9.3883767 0 0 0 -9.388324,-9.388323 z m -1.427475,1.680831 a 2.0848145,2.0848145 0 0 1 1.934189,1.543758 2.0848145,2.0848145 0 0 1 -1.474194,2.553334 2.0848145,2.0848145 0 0 1 -2.553333,-1.474193 2.0848145,2.0848145 0 0 1 1.474192,-2.553334 2.0848145,2.0848145 0 0 1 0.619146,-0.06956 z m 5.575134,1.505767 a 2.0848145,2.0848145 0 0 1 1.443646,0.610417 2.0848145,2.0848145 0 0 1 0,2.948386 2.0848145,2.0848145 0 0 1 -2.948385,0 2.0848145,2.0848145 0 0 1 0,-2.948386 2.0848145,2.0848145 0 0 1 1.504739,-0.610417 z m -22.13497,0.05596 a 7.7669956,7.7669956 0 0 0 -7.766788,7.767048 7.7669956,7.7669956 0 0 0 7.766788,7.767043 7.7669956,7.7669956 0 0 0 7.767044,-7.767043 7.7669956,7.7669956 0 0 0 -7.767044,-7.767044 z m 1.240344,1.330958 a 1.7374831,1.7374831 0 0 1 0.465387,0.05904 1.7374831,1.7374831 0 0 1 1.228537,2.127993 1.7374831,1.7374831 0 0 1 -2.127993,1.228536 1.7374831,1.7374831 0 0 1 -1.228537,-2.127992 1.7374831,1.7374831 0 0 1 1.662606,-1.287577 z m 11.104065,1.223147 a 2.0848145,2.0848145 0 0 1 0.558309,0.07085 2.0848145,2.0848145 0 0 1 1.474194,2.553334 2.0848145,2.0848145 0 0 1 -2.553335,1.474193 2.0848145,2.0848145 0 0 1 -1.474193,-2.553334 2.0848145,2.0848145 0 0 1 1.995025,-1.545041 z m -15.750224,0.03286 a 1.7374831,1.7374831 0 0 1 1.203381,0.508767 1.7374831,1.7374831 0 0 1 0,2.457074 1.7374831,1.7374831 0 0 1 -2.45733,0 1.7374831,1.7374831 0 0 1 0,-2.457074 1.7374831,1.7374831 0 0 1 1.253949,-0.508767 z m 8.159272,2.17625 a 1.7374831,1.7374831 0 0 1 2.63e-4,0 1.7374831,1.7374831 0 0 1 1.611781,1.28655 1.7374831,1.7374831 0 0 1 -1.228537,2.127992 1.7374831,1.7374831 0 0 1 -2.127992,-1.228536 1.7374831,1.7374831 0 0 1 1.228537,-2.127993 1.7374831,1.7374831 0 0 1 0.515955,-0.05801 z m 13.283396,0.08907 a 1.2944536,1.2944536 0 0 1 1.200814,0.958495 1.2944536,1.2944536 0 0 1 -0.91537,1.585342 1.2944536,1.2944536 0 0 1 -1.585342,-0.915371 1.2944536,1.2944536 0 0 1 0.915371,-1.585341 1.2944536,1.2944536 0 0 1 0.384527,-0.04313 z m 5.555884,0.715663 a 2.0848145,2.0848145 0 0 1 0.558307,0.0711 2.0848145,2.0848145 0 0 1 1.474191,2.553335 2.0848145,2.0848145 0 0 1 -2.553328,1.474192 A 2.0848145,2.0848145 0 0 1 87.589918,37.577 2.0848145,2.0848145 0 0 1 89.584947,36.03196 Z M 65.99221,37.152429 a 1.0787968,1.0787968 0 0 1 1.078884,1.078628 1.0787968,1.0787968 0 0 1 -1.078884,1.078883 1.0787968,1.0787968 0 0 1 -1.078628,-1.078883 1.0787968,1.0787968 0 0 1 1.078628,-1.078628 z m -4.620747,0.586802 a 1.7374831,1.7374831 0 0 1 1.612038,1.28655 1.7374831,1.7374831 0 0 1 -1.228537,2.127993 1.7374831,1.7374831 0 0 1 -2.127993,-1.228794 1.7374831,1.7374831 0 0 1 1.228537,-2.127736 1.7374831,1.7374831 0 0 1 0.515955,-0.05801 z m 18.521235,0.90305 a 2.0848145,2.0848145 0 0 1 1.443903,0.610418 2.0848145,2.0848145 0 0 1 0,2.948386 2.0848145,2.0848145 0 0 1 -2.948387,0 2.0848145,2.0848145 0 0 1 0,-2.948386 2.0848145,2.0848145 0 0 1 1.504484,-0.610418 z m -10.443849,1.271147 a 1.7374831,1.7374831 0 0 1 1.203382,0.508767 1.7374831,1.7374831 0 0 1 0,2.457075 1.7374831,1.7374831 0 0 1 -2.457331,0 1.7374831,1.7374831 0 0 1 0,-2.457075 1.7374831,1.7374831 0 0 1 1.253949,-0.508767 z m 16.117296,0.237188 a 2.0848145,2.0848145 0 0 1 1.934192,1.543757 2.0848145,2.0848145 0 0 1 -1.474197,2.553334 2.0848145,2.0848145 0 0 1 -2.553333,-1.474193 2.0848145,2.0848145 0 0 1 1.474194,-2.553335 2.0848145,2.0848145 0 0 1 0.619144,-0.06956 z m -20.84534,1.018562 a 1.7374831,1.7374831 0 0 1 0.465386,0.0593 1.7374831,1.7374831 0 0 1 1.228537,2.127993 1.7374831,1.7374831 0 0 1 -2.127993,1.228536 1.7374831,1.7374831 0 0 1 -1.228536,-2.127991 1.7374831,1.7374831 0 0 1 1.662606,-1.287834 z m 35.802895,0.160947 -6.492303,4.576851 v 9.115713 l 6.510273,4.564531 z m -25.973059,0.681009 c -1.496431,3.390672 -4.851969,5.579607 -8.558174,5.582322 -2.460221,-0.0029 -4.820539,-0.974079 -6.570337,-2.703501 -2.1e-5,0.0046 -2.63e-4,0.0092 -2.63e-4,0.01386 V 59.43449 c 0,1.667282 1.342196,3.009736 3.009479,3.009736 h 27.085833 c 1.667279,0 3.009481,-1.342454 3.009481,-3.009736 V 44.903816 c 0,-0.442387 -0.09543,-0.861441 -0.265426,-1.239061 -2.066752,2.427293 -5.093736,3.826198 -8.281713,3.827306 -3.897632,-0.0066 -7.494276,-2.097309 -9.42888,-5.480927 z m -2.053038,5.902162 9.9972,4.78272 -10.011062,4.762699 z"
         id="rect855"
         inkscape:connector-curvature="0" />
    </g>
  </g>
</svg>
