<?xml version="1.0" encoding="UTF-8" standalone="no"?>
<svg version="1.1" xmlns="http://www.w3.org/2000/svg" width="21.115585mm" height="17.762426mm"
   viewBox="0 0 21.115585 17.762426">
  <g transform="translate(-61.114276,-42.164848)">
    <path
       style="opacity:1;fill:#000000;fill-opacity:1;stroke:none;stroke-width:0.99999988;stroke-miterlimit:4;stroke-dasharray:none"
       d="m 73.911163,42.164848 c -2.138036,0.002 -4.046757,1.340378 -4.777151,3.349787 -0.821717,-1.185864 -2.172047,-1.894191 -3.614784,-1.896165 -2.432843,9.5e-5 -4.40499,1.972351 -4.404952,4.405193 1.8e-5,0.907709 0.28098,1.785474 0.792578,2.519147 -0.06428,0.184071 -0.100939,0.38127 -0.100939,0.587809 v 7.021424 c 0,0.983536 0.791694,1.775231 1.775231,1.775231 h 13.170771 c 0.983537,0 1.775231,-0.791695 1.775231,-1.775231 V 56.74853 l 3.702714,2.585153 V 48.166761 l -3.7627,2.510956 c -0.06101,-0.233099 -0.167287,-0.446949 -0.310044,-0.631894 0.544529,-0.825048 0.840145,-1.795094 0.841963,-2.793056 0,-2.80998 -2.277938,-5.087919 -5.087918,-5.087919 z"/>
    <path
       id="rect855"
       d="m 73.899073,42.892524 a 4.3766746,4.3766746 0 0 0 -4.376649,4.376649 4.3766746,4.3766746 0 0 0 4.376649,4.376649 4.3766746,4.3766746 0 0 0 4.37665,-4.376649 4.3766746,4.3766746 0 0 0 -4.37665,-4.376649 z m -0.665461,0.78357 a 0.97189906,0.97189906 0 0 1 0.901681,0.719669 0.97189906,0.97189906 0 0 1 -0.68724,1.190314 0.97189906,0.97189906 0 0 1 -1.190313,-0.687239 0.97189906,0.97189906 0 0 1 0.687239,-1.190314 0.97189906,0.97189906 0 0 1 0.288633,-0.03243 z m 2.599017,0.701959 a 0.97189906,0.97189906 0 0 1 0.672999,0.284564 0.97189906,0.97189906 0 0 1 0,1.374479 0.97189906,0.97189906 0 0 1 -1.374478,0 0.97189906,0.97189906 0 0 1 0,-1.374479 0.97189906,0.97189906 0 0 1 0.701479,-0.284564 z m -10.318883,0.02609 a 3.620819,3.620819 0 0 0 -3.620722,3.620843 3.620819,3.620819 0 0 0 3.620722,3.620841 3.620819,3.620819 0 0 0 3.620842,-3.620841 3.620819,3.620819 0 0 0 -3.620842,-3.620841 z m 0.578224,0.620466 a 0.80998007,0.80998007 0 0 1 0.216954,0.02752 0.80998007,0.80998007 0 0 1 0.572719,0.992028 0.80998007,0.80998007 0 0 1 -0.992027,0.572719 0.80998007,0.80998007 0 0 1 -0.57272,-0.992027 0.80998007,0.80998007 0 0 1 0.775074,-0.600243 z m 5.176494,0.570207 a 0.97189906,0.97189906 0 0 1 0.260273,0.03303 0.97189906,0.97189906 0 0 1 0.68724,1.190314 0.97189906,0.97189906 0 0 1 -1.190314,0.687239 0.97189906,0.97189906 0 0 1 -0.68724,-1.190313 0.97189906,0.97189906 0 0 1 0.930041,-0.720268 z m -7.342441,0.01532 a 0.80998007,0.80998007 0 0 1 0.560992,0.237177 0.80998007,0.80998007 0 0 1 0,1.145439 0.80998007,0.80998007 0 0 1 -1.145558,0 0.80998007,0.80998007 0 0 1 0,-1.145439 0.80998007,0.80998007 0 0 1 0.584566,-0.237177 z m 3.80369,1.014524 a 0.80998007,0.80998007 0 0 1 1.23e-4,0 0.80998007,0.80998007 0 0 1 0.75138,0.599764 0.80998007,0.80998007 0 0 1 -0.572719,0.992028 0.80998007,0.80998007 0 0 1 -0.992028,-0.572719 0.80998007,0.80998007 0 0 1 0.572719,-0.992028 0.80998007,0.80998007 0 0 1 0.240528,-0.02704 z m 6.192455,0.04152 a 0.60344855,0.60344855 0 0 1 0.559796,0.446831 0.60344855,0.60344855 0 0 1 -0.426727,0.739055 0.60344855,0.60344855 0 0 1 -0.739055,-0.426727 0.60344855,0.60344855 0 0 1 0.426728,-0.739055 0.60344855,0.60344855 0 0 1 0.179258,-0.02011 z m 2.590043,0.333628 a 0.97189906,0.97189906 0 0 1 0.260272,0.03315 0.97189906,0.97189906 0 0 1 0.687238,1.190314 0.97189906,0.97189906 0 0 1 -1.190311,0.687239 0.97189906,0.97189906 0 0 1 -0.687242,-1.190433 0.97189906,0.97189906 0 0 1 0.930043,-0.720267 z m -10.998465,0.522338 a 0.50291362,0.50291362 0 0 1 0.502955,0.502835 0.50291362,0.50291362 0 0 1 -0.502955,0.502954 0.50291362,0.50291362 0 0 1 -0.502835,-0.502954 0.50291362,0.50291362 0 0 1 0.502835,-0.502835 z m -2.1541,0.273556 a 0.80998007,0.80998007 0 0 1 0.7515,0.599764 0.80998007,0.80998007 0 0 1 -0.57272,0.992028 0.80998007,0.80998007 0 0 1 -0.992028,-0.572839 0.80998007,0.80998007 0 0 1 0.57272,-0.991909 0.80998007,0.80998007 0 0 1 0.240528,-0.02704 z m 8.634231,0.420983 a 0.97189906,0.97189906 0 0 1 0.673119,0.284565 0.97189906,0.97189906 0 0 1 0,1.37448 0.97189906,0.97189906 0 0 1 -1.374479,0 0.97189906,0.97189906 0 0 1 0,-1.37448 0.97189906,0.97189906 0 0 1 0.70136,-0.284565 z m -4.868714,0.592584 a 0.80998007,0.80998007 0 0 1 0.560992,0.237177 0.80998007,0.80998007 0 0 1 0,1.14544 0.80998007,0.80998007 0 0 1 -1.145559,0 0.80998007,0.80998007 0 0 1 0,-1.14544 0.80998007,0.80998007 0 0 1 0.584567,-0.237177 z m 7.513562,0.110572 a 0.97189906,0.97189906 0 0 1 0.901683,0.719669 0.97189906,0.97189906 0 0 1 -0.687242,1.190314 0.97189906,0.97189906 0 0 1 -1.190313,-0.68724 0.97189906,0.97189906 0 0 1 0.68724,-1.190314 0.97189906,0.97189906 0 0 1 0.288632,-0.03243 z m -9.717683,0.474834 a 0.80998007,0.80998007 0 0 1 0.216954,0.02764 0.80998007,0.80998007 0 0 1 0.57272,0.992028 0.80998007,0.80998007 0 0 1 -0.992028,0.572719 0.80998007,0.80998007 0 0 1 -0.57272,-0.992027 0.80998007,0.80998007 0 0 1 0.775074,-0.600363 z m 16.690598,0.07503 -3.026582,2.133637 v 4.249564 l 3.034959,2.127894 z m -12.108123,0.317473 c -0.697607,1.580664 -2.261892,2.601102 -3.989651,2.602368 -1.146906,-0.0013 -2.247239,-0.454097 -3.06296,-1.260319 -1e-5,0.0022 -1.23e-4,0.0043 -1.23e-4,0.0065 v 6.773912 c 0,0.777254 0.625705,1.403079 1.402959,1.403079 h 12.626877 c 0.777252,0 1.40296,-0.625825 1.40296,-1.403079 v -6.773907 c 0,-0.206232 -0.04449,-0.401587 -0.123736,-0.577626 -0.963479,1.131556 -2.374599,1.783698 -3.86077,1.784214 -1.816999,-0.0031 -3.493683,-0.977723 -4.395556,-2.555099 z m -0.957086,2.75147 4.660496,2.229609 -4.666958,2.220276 z"
       style="display:inline;opacity:1;fill:#ff0000;fill-opacity:1;stroke:none;stroke-width:0.99999988;stroke-miterlimit:4;stroke-dasharray:none" />
  </g>
</svg>
