<?xml version="1.0" encoding="UTF-8" standalone="no"?>
<!-- Created with Inkscape (http://www.inkscape.org/) -->

<svg
   xmlns:dc="http://purl.org/dc/elements/1.1/"
   xmlns:cc="http://creativecommons.org/ns#"
   xmlns:rdf="http://www.w3.org/1999/02/22-rdf-syntax-ns#"
   xmlns:svg="http://www.w3.org/2000/svg"
   xmlns="http://www.w3.org/2000/svg"
   xmlns:sodipodi="http://sodipodi.sourceforge.net/DTD/sodipodi-0.dtd"
   xmlns:inkscape="http://www.inkscape.org/namespaces/inkscape"
   width="36.176224mm"
   height="30.431433mm"
   viewBox="0 0 36.176223 30.431432"
   version="1.1"
   id="svg8"
   inkscape:version="0.92.5 (2060ec1f9f, 2020-04-08)"
   sodipodi:docname="logo-blue.svg">
  <defs
     id="defs2" />
  <sodipodi:namedview
     id="base"
     pagecolor="#ffffff"
     bordercolor="#666666"
     borderopacity="1.0"
     inkscape:pageopacity="0.0"
     inkscape:pageshadow="2"
     inkscape:zoom="2.8284271"
     inkscape:cx="78.298395"
     inkscape:cy="-10.443491"
     inkscape:document-units="mm"
     inkscape:current-layer="layer1"
     showgrid="true"
     inkscape:window-width="2488"
     inkscape:window-height="1376"
     inkscape:window-x="72"
     inkscape:window-y="27"
     inkscape:window-maximized="1"
     fit-margin-top="0"
     fit-margin-left="0"
     fit-margin-right="0"
     fit-margin-bottom="0"
     inkscape:snap-global="false"
     inkscape:snap-midpoints="true"
     inkscape:snap-bbox="true"
     inkscape:bbox-paths="true"
     inkscape:bbox-nodes="true"
     inkscape:snap-bbox-edge-midpoints="true"
     inkscape:snap-bbox-midpoints="true"
     inkscape:snap-grids="false"
     inkscape:object-paths="true"
     inkscape:snap-intersection-paths="true"
     inkscape:snap-smooth-nodes="true"
     inkscape:snap-object-midpoints="true"
     inkscape:snap-center="true"
     inkscape:snap-others="false"
     inkscape:snap-nodes="false">
    <inkscape:grid
       type="xygrid"
       id="grid815"
       units="mm"
       originx="-61.114271"
       originy="-237.07268" />
  </sodipodi:namedview>
  <metadata
     id="metadata5">
    <rdf:RDF>
      <cc:Work
         rdf:about="">
        <dc:format>image/svg+xml</dc:format>
        <dc:type
           rdf:resource="http://purl.org/dc/dcmitype/StillImage" />
        <dc:title></dc:title>
      </cc:Work>
    </rdf:RDF>
  </metadata>
  <g
     inkscape:label="Calque 1"
     inkscape:groupmode="layer"
     id="layer1"
     transform="translate(-61.114276,-29.495842)"
     style="display:inline">
    <path
       style="opacity:1;fill:#000000;fill-opacity:1;stroke:none;stroke-width:0.99999988;stroke-miterlimit:4;stroke-dasharray:none"
       d="m 83.03851,29.495842 c -3.662984,0.0034 -6.933096,2.296399 -8.184441,5.739015 -1.407804,-2.031679 -3.721254,-3.245218 -6.193019,-3.2486 -4.168062,1.63e-4 -7.546839,3.379125 -7.546774,7.547186 3.2e-5,1.555129 0.481389,3.058958 1.357883,4.315921 -0.110123,0.31536 -0.172934,0.653211 -0.172934,1.007062 v 12.029438 c 0,1.68504 1.356368,3.04141 3.04141,3.04141 h 22.564791 c 1.685042,0 3.04141,-1.35637 3.04141,-3.04141 V 54.481298 L 97.2905,58.910306 V 39.778605 l -6.446435,4.301888 c -0.104522,-0.399356 -0.286604,-0.765734 -0.531183,-1.082591 0.932914,-1.413511 1.439377,-3.075439 1.442492,-4.785196 0,-4.814191 -3.902672,-8.716864 -8.716864,-8.716864 z"
       id="rect1748"
       inkscape:connector-curvature="0" />
    <path
       inkscape:connector-curvature="0"
       id="rect855"
       d="m 83.017798,30.742532 a 7.4983266,7.4983266 0 0 0 -7.498283,7.498283 7.4983266,7.4983266 0 0 0 7.498283,7.498282 7.4983266,7.4983266 0 0 0 7.498284,-7.498282 7.4983266,7.4983266 0 0 0 -7.498284,-7.498283 z m -1.140099,1.342449 a 1.6651036,1.6651036 0 0 1 1.544802,1.232971 1.6651036,1.6651036 0 0 1 -1.177412,2.039302 1.6651036,1.6651036 0 0 1 -2.039301,-1.177411 1.6651036,1.6651036 0 0 1 1.17741,-2.039302 1.6651036,1.6651036 0 0 1 0.494501,-0.05556 z m 4.452759,1.202629 a 1.6651036,1.6651036 0 0 1 1.153014,0.487529 1.6651036,1.6651036 0 0 1 0,2.354822 1.6651036,1.6651036 0 0 1 -2.354822,0 1.6651036,1.6651036 0 0 1 0,-2.354822 1.6651036,1.6651036 0 0 1 1.201808,-0.487529 z m -17.6788,0.04469 a 6.2033589,6.2033589 0 0 0 -6.203193,6.203401 6.2033589,6.2033589 0 0 0 6.203193,6.203396 6.2033589,6.2033589 0 0 0 6.203397,-6.203396 6.2033589,6.2033589 0 0 0 -6.203397,-6.203398 z m 0.99064,1.063012 a 1.3876963,1.3876963 0 0 1 0.371696,0.04715 1.3876963,1.3876963 0 0 1 0.98121,1.69959 1.3876963,1.3876963 0 0 1 -1.699589,0.981209 1.3876963,1.3876963 0 0 1 -0.98121,-1.699588 1.3876963,1.3876963 0 0 1 1.327893,-1.028365 z m 8.868616,0.976905 a 1.6651036,1.6651036 0 0 1 0.445911,0.05659 1.6651036,1.6651036 0 0 1 1.177412,2.039302 1.6651036,1.6651036 0 0 1 -2.039302,1.177411 1.6651036,1.6651036 0 0 1 -1.177412,-2.039302 1.6651036,1.6651036 0 0 1 1.593391,-1.233996 z m -12.579419,0.02624 a 1.3876963,1.3876963 0 0 1 0.961118,0.406343 1.3876963,1.3876963 0 0 1 0,1.962421 1.3876963,1.3876963 0 0 1 -1.962625,0 1.3876963,1.3876963 0 0 1 0,-1.962421 1.3876963,1.3876963 0 0 1 1.001507,-0.406343 z m 6.516663,1.738132 a 1.3876963,1.3876963 0 0 1 2.1e-4,0 1.3876963,1.3876963 0 0 1 1.2873,1.027544 1.3876963,1.3876963 0 0 1 -0.98121,1.699589 1.3876963,1.3876963 0 0 1 -1.699589,-0.98121 1.3876963,1.3876963 0 0 1 0.98121,-1.699589 1.3876963,1.3876963 0 0 1 0.412084,-0.04633 z m 10.609208,0.07114 a 1.0338567,1.0338567 0 0 1 0.959068,0.765533 1.0338567,1.0338567 0 0 1 -0.731089,1.266184 1.0338567,1.0338567 0 0 1 -1.266184,-0.73109 1.0338567,1.0338567 0 0 1 0.73109,-1.266184 1.0338567,1.0338567 0 0 1 0.307115,-0.03445 z m 4.437384,0.571587 a 1.6651036,1.6651036 0 0 1 0.44591,0.05679 1.6651036,1.6651036 0 0 1 1.177409,2.039302 1.6651036,1.6651036 0 0 1 -2.039297,1.177411 1.6651036,1.6651036 0 0 1 -1.177416,-2.039507 1.6651036,1.6651036 0 0 1 1.593394,-1.233996 z m -18.843092,0.894895 a 0.86161549,0.86161549 0 0 1 0.861685,0.861481 0.86161549,0.86161549 0 0 1 -0.861685,0.861684 0.86161549,0.86161549 0 0 1 -0.861481,-0.861684 0.86161549,0.86161549 0 0 1 0.861481,-0.861481 z m -3.690507,0.468669 a 1.3876963,1.3876963 0 0 1 1.287505,1.027544 1.3876963,1.3876963 0 0 1 -0.98121,1.699589 1.3876963,1.3876963 0 0 1 -1.69959,-0.981415 1.3876963,1.3876963 0 0 1 0.981211,-1.699384 1.3876963,1.3876963 0 0 1 0.412084,-0.04633 z m 14.792575,0.721249 a 1.6651036,1.6651036 0 0 1 1.153219,0.48753 1.6651036,1.6651036 0 0 1 0,2.354823 1.6651036,1.6651036 0 0 1 -2.354823,0 1.6651036,1.6651036 0 0 1 0,-2.354823 1.6651036,1.6651036 0 0 1 1.201604,-0.48753 z m -8.341313,1.015242 a 1.3876963,1.3876963 0 0 1 0.961119,0.406343 1.3876963,1.3876963 0 0 1 0,1.962422 1.3876963,1.3876963 0 0 1 -1.962626,0 1.3876963,1.3876963 0 0 1 0,-1.962422 1.3876963,1.3876963 0 0 1 1.001507,-0.406343 z m 12.872592,0.189438 a 1.6651036,1.6651036 0 0 1 1.544805,1.232971 1.6651036,1.6651036 0 0 1 -1.177415,2.039302 1.6651036,1.6651036 0 0 1 -2.039301,-1.177412 1.6651036,1.6651036 0 0 1 1.177412,-2.039302 1.6651036,1.6651036 0 0 1 0.494499,-0.05556 z m -16.648796,0.813507 a 1.3876963,1.3876963 0 0 1 0.371696,0.04736 1.3876963,1.3876963 0 0 1 0.98121,1.69959 1.3876963,1.3876963 0 0 1 -1.699589,0.981209 1.3876963,1.3876963 0 0 1 -0.98121,-1.699588 1.3876963,1.3876963 0 0 1 1.327893,-1.028571 z m 28.595125,0.128546 -5.185285,3.655448 v 7.280555 l 5.199637,3.645608 z m -20.744212,0.543909 c -1.195173,2.708069 -3.87518,4.456331 -6.835259,4.4585 -1.964934,-0.0023 -3.850077,-0.777979 -5.247609,-2.159238 -1.7e-5,0.0037 -2.1e-4,0.0073 -2.1e-4,0.01107 V 56.47049 c 0,1.331628 1.071987,2.403822 2.403616,2.403822 h 21.632965 c 1.331625,0 2.403618,-1.072194 2.403618,-2.403822 V 44.865111 c 0,-0.353326 -0.07622,-0.688017 -0.211991,-0.989616 -1.650678,1.938635 -4.068275,3.055916 -6.614454,3.0568 -3.112969,-0.0053 -5.985543,-1.675082 -7.530676,-4.377517 z m -1.639725,4.71395 7.984583,3.819872 -7.995654,3.803882 z"
       style="display:inline;opacity:1;fill:#0d6efd;fill-opacity:1;stroke:none;stroke-width:0.99999988;stroke-miterlimit:4;stroke-dasharray:none" />
  </g>
</svg>
